<!--
  Pixelated 'S' logo for a Snake Game.
  - 7x7 pixel grid design with a pixelated "S" shape.
  - Created using simple SVG rectangles.
  - Colors are themed for a classic snake game feel.
-->
<svg width="70" height="70" viewBox="0 0 70 70" xmlns="http://www.w3.org/2000/svg">
  <!-- BACKGROUND -->
  <g fill="#161624ff" stroke="#222239ff">
    <rect x="0" y="0" width="10" height="10"/>
    <rect x="10" y="0" width="10" height="10"/>
    <rect x="20" y="0" width="10" height="10"/>
    <rect x="30" y="0" width="10" height="10"/>
    <rect x="40" y="0" width="10" height="10"/>
    <rect x="50" y="0" width="10" height="10"/>
    <rect x="60" y="0" width="10" height="10"/>

    <rect x="0" y="10" width="10" height="10"/>
    <rect x="40" y="10" width="10" height="10"/>
    <rect x="60" y="10" width="10" height="10"/>

    <rect x="0" y="20" width="10" height="10"/>
    <rect x="20" y="20" width="10" height="10"/>
    <rect x="30" y="20" width="10" height="10"/>
    <rect x="40" y="20" width="10" height="10"/>
    <rect x="50" y="20" width="10" height="10"/>
    <rect x="60" y="20" width="10" height="10"/>

    <rect x="0" y="30" width="10" height="10"/>
    <rect x="60" y="30" width="10" height="10"/>

    <rect x="0" y="40" width="10" height="10"/>
    <rect x="10" y="40" width="10" height="10"/>
    <rect x="20" y="40" width="10" height="10"/>
    <rect x="30" y="40" width="10" height="10"/>
    <rect x="40" y="40" width="10" height="10"/>
    <rect x="60" y="40" width="10" height="10"/>

    <rect x="0" y="50" width="10" height="10"/>
    <rect x="60" y="50" width="10" height="10"/>

    <rect x="0" y="60" width="10" height="10"/>
    <rect x="10" y="60" width="10" height="10"/>
    <rect x="20" y="60" width="10" height="10"/>
    <rect x="30" y="60" width="10" height="10"/>
    <rect x="40" y="60" width="10" height="10"/>
    <rect x="50" y="60" width="10" height="10"/>
    <rect x="60" y="60" width="10" height="10"/>
  </g>

  <!-- FOOD -->
  <g fill="#FF3B4B" stroke="#da3f3fff">
    <rect x="50" y="10" width="10" height="10"/>    
  </g>

  <!-- SNAKE -->
  <g fill="#86FE87" stroke="#09521bff"> >
    <rect x="10" y="10" width="10" height="10"/>
    <rect x="20" y="10" width="10" height="10"/>
    <rect x="30" y="10" width="10" height="10"/>

    <rect x="10" y="20" width="10" height="10"/>

    <rect x="10" y="30" width="10" height="10"/>
    <rect x="20" y="30" width="10" height="10"/>
    <rect x="30" y="30" width="10" height="10"/>
    <rect x="40" y="30" width="10" height="10"/>
    <rect x="50" y="30" width="10" height="10"/>

    <rect x="50" y="40" width="10" height="10"/>

    <rect x="10" y="50" width="10" height="10"/>
    <rect x="20" y="50" width="10" height="10"/>
    <rect x="30" y="50" width="10" height="10"/>
    <rect x="40" y="50" width="10" height="10"/>
    <rect x="50" y="50" width="10" height="10"/>
  </g>
</svg>